<?xml version="1.0" encoding="utf-8"?>
<!-- Generator: Adobe Illustrator 26.3.1, SVG Export Plug-In . SVG Version: 6.00 Build 0)  -->
<svg version="1.1" id="Layer_1" xmlns="http://www.w3.org/2000/svg" xmlns:xlink="http://www.w3.org/1999/xlink" x="0px" y="0px"
	 viewBox="0 0 546.2 672.5" style="enable-background:new 0 0 546.2 672.5;" xml:space="preserve">
<style type="text/css">
	.st0{fill:#F68E57;}
	.st1{fill:#FBEE38;}
	.st2{fill:#231F20;stroke:#231F20;stroke-miterlimit:10;}
	.st3{fill:none;stroke:#231F20;stroke-width:2;stroke-miterlimit:10;}
	.st4{fill:#FBEE38;stroke:#231F20;stroke-width:3.84;stroke-linecap:round;stroke-miterlimit:10;}
	.st5{fill:#FBEE38;stroke:#231F20;stroke-width:3.95;stroke-linecap:round;stroke-miterlimit:10;}
	.st6{fill:#E02E29;stroke:#231F20;stroke-width:1.23;stroke-miterlimit:10;}
	.st7{fill:#E02E29;stroke:#231F20;stroke-miterlimit:10;}
	.st8{fill:#DE1E35;stroke:#231F20;stroke-width:1.09;stroke-miterlimit:10;}
	.st9{fill:#E02E29;stroke:#231F20;stroke-width:1.18;stroke-miterlimit:10;}
	.st10{fill:#E02E29;stroke:#231F20;stroke-width:1.15;stroke-miterlimit:10;}
	.st11{fill:#DE1E35;stroke:#231F20;stroke-width:1.06;stroke-miterlimit:10;}
	.st12{fill:none;stroke:#231F20;stroke-miterlimit:10;}
	.st13{fill:#3B7265;stroke:#231F20;stroke-width:1.19;stroke-miterlimit:10;}
	.st14{fill:#3B7265;stroke:#231F20;stroke-width:1.21;stroke-miterlimit:10;}
	.st15{fill:#3B7265;stroke:#231F20;stroke-width:1.33;stroke-miterlimit:10;}
	.st16{fill:#3B7265;stroke:#231F20;stroke-width:1.6;stroke-miterlimit:10;}
	.st17{fill:#3B7265;stroke:#231F20;stroke-width:1.3;stroke-miterlimit:10;}
	.st18{fill:#3B7265;stroke:#231F20;stroke-width:1.4;stroke-miterlimit:10;}
	.st19{fill:#3B7265;stroke:#231F20;stroke-width:1.56;stroke-miterlimit:10;}
	.st20{fill:#3B7265;stroke:#231F20;stroke-width:1.41;stroke-miterlimit:10;}
</style>
<g>
	<g id="Lion_trace">
		<path class="st0" d="M217.6,108.7c9.6-3.7,9-6.7,25.1-13.8c15.2-6.8,28.3-12.7,43.7-11.9c24.7,1.2,42.8,18.9,54.9,30.8
			c16.9,16.5,12.8,21,24.6,29.4c26.4,18.7,52.4-2.1,69.5,14.3c18.6,17.9,18.4,55.6,6.5,82.4c-18.7,41.9-60.1,43.1-62.3,73.1
			c-1.3,17.5,12.6,19.8,29.4,58c12.3,28.1,22.4,50.8,14.3,74.5c-1.4,4.2-6.6,19.3-20.8,28.9c-20.9,14.1-40,1.6-60.9,17.7
			c-9.8,7.5-14.4,16.9-16.5,21.5c-10.8,23.3,1.1,36.8-7.2,53.7c-12.1,24.8-52.8,26.4-57.3,26.5c-4.9,0.1-41.9,0.7-60.2-24.4
			c-14.7-20.1-0.7-34-14.3-52.3c-17-22.8-44.7-9.5-70.9-35.8c-3.9-3.9-17.5-17.5-20.1-37.2c-5.3-41.3,44.2-61.7,35.3-96.5
			c-3.7-14.4-17-29.9-22.1-35.8C98.9,300.8,96,301,89.6,293.6c-18.4-21.1-27.4-59.9-12.3-80.3c9.4-12.7,22.3-10.3,26.5-22.9
			c4.2-12.5-7-19.4-7.2-34.4c-0.2-22,23.5-47.4,48.7-53C174.1,96.6,188.9,119.7,217.6,108.7L217.6,108.7z"/>
		<path class="st1" d="M187.1,349.2c-19.7-18.2-29.8-56.1-18.9-86.2c16.7-45.9,75-52.6,78.6-53c7.3-0.7,43-4.3,68.5,20.1
			c13.6,13,18,27.9,22.2,42c3.2,11,15.2,51.3-1.9,71.6c-2.6,3.1-8.2,8.5-11.5,18.1c-2.8,8.2-2.3,15.2-2.1,17.9
			c1,18.8,2.8,50.2-9.3,69c-13.3,20.8-41.3,22.6-42.5,22.7c-1.5,0.1-25.6,0.9-43-16.7c-15.1-15.3-17.2-36.5-18.4-47.8
			c-1.8-17.6,2.1-25.2-4.1-38C199.7,358.6,192.7,354.4,187.1,349.2L187.1,349.2z"/>
		<path class="st2" d="M259,372.6c5.6-0.4,9.6-7.2,11.2-10.3c5.5-5.3,7.1-12.4,4.5-17c-2.1-3.7-6.5-5-7.4-5.2
			c-3-0.9-5.1-0.4-10.5,0.5c-12.7,2.1-13.3,1.4-14.3,2.6C237.3,349.3,247.9,373.4,259,372.6L259,372.6z"/>
		<g>
			<path class="st3" d="M260.4,375.5c0.7,10.8,1.4,21.6,2.1,32.5c1,1.3,7.4,9.4,18.6,10.3c13.4,1,21.8-9.2,22.5-10"/>
			<path class="st3" d="M220.3,414.1c1.2,1.2,8.8,8.4,20.3,7.6c13.2-0.9,20.1-11.6,20.8-12.7"/>
		</g>
		<path class="st2" d="M195.1,269.2c0.3,1.1,7.9-1.3,20.3-0.8c8.8,0.4,15.9,2,20.7,3.4c0.3-0.1,0.5-0.3,0.7-0.5
			c2.8-2.8-0.5-9.9-1-10.8c-3.7-0.4-8.9-0.7-15,0C206.7,262,194.7,267.8,195.1,269.2L195.1,269.2z"/>
		<path class="st2" d="M259.3,255c-1.8,6-0.9,8.6,0.4,9.8c2.3,2.3,6.2,0.4,22-2.5c9.4-1.7,12.6-1.9,16.4-1.3c5.2,0.9,8.4,2.7,8.8,2
			c0.5-0.9-4.1-5.3-10-7.4c-5.2-1.8-9.3-1.2-14-0.7C277.2,255.4,269.3,255.8,259.3,255L259.3,255z"/>
		<path class="st4" d="M200,290.1c2,2.6,11.2,14.3,24.7,13.4c6.1-0.4,10.9-3.2,13.7-5.4"/>
		<path class="st5" d="M303.6,286c-2,2.7-11.3,15.1-24.8,14.2c-6.1-0.4-10.9-3.4-13.8-5.7"/>
	</g>
	<g id="Crown">
		<path class="st6" d="M114.8,53.1c-1.1-0.3-2.5-0.8-4-1.8c-5.3-3.4-8.3-10.6-4.3-15.2c2.6-3,7.1-3.8,7.5-3.8
			c2.1-0.3,3.7-0.1,5.5,0.1c5,0.7,6.3,2.1,10.7,2.8c3.3,0.5,5,0,6.5,0c8.5,0.3,20.8,19.8,18.3,40.9c-1.4,11.4-8.1,31.7-21.5,33
			c-10,0.9-19.1-9.1-23.7-14.2C95.6,79.3,95.1,61.7,96,51.9c4.1,0.7,31.7,5.8,37.3,21.2c0.6,1.5,0.9,3.2,1,5.1"/>
		<path class="st7" d="M120.4,42.6c-0.8,3.3-1.6,7.8-1,13.1c1.4,13.5,10.2,22.1,13.1,24.7"/>
		<path class="st8" d="M152.6,37.7c-3.6,1-4.9,8-4.8,12.7c0.3,18.2,21.5,41.5,47.5,41.5c17.7,0,36.4-10.9,42.1-27.1
			c5.1-14.5-0.9-32.5-7.2-33.6c-3.3-0.6-7.3,3.2-10.2,6c-6,5.6-6.2,10.1-9.4,10.4c-3.3,0.2-4-4.7-10.8-7.9c-2.1-1-6.1-2.9-9.8-1.9
			c-8.1,2.2-6.7,16.3-12.8,17.8C169.4,57.6,159.6,35.7,152.6,37.7L152.6,37.7z"/>
		<path class="st9" d="M237.5,35.8c1.8-0.7,6.3,0,15.1,1.5c9.5,1.6,14.2,2.3,16.4,3.3c7.2,3,15.3,9.8,16.1,19
			c0.8,9.3-6.2,15.7-7.2,16.5c-1,0.9-10.3,8.8-22.4,7.3c-13.1-1.7-18.9-13.1-21.1-17.5C228.6,54.3,229.4,38.8,237.5,35.8L237.5,35.8
			z"/>
		<path class="st10" d="M296.6,33.6c1.3-0.5,5.8-2.2,10.5-1.2c13.2,2.9,22.7,26.2,8.6,39.5c-6.2,5.9-18.8,11.5-26.5,8.5
			C275.3,75,277.2,41.1,296.6,33.6z"/>
		<path class="st11" d="M329.5,25.3c-5.9,0.5-14,27.1-2.3,49c1.5,2.8,11.2,21,28,23.2c32,4.2,59.4-53.8,56-56.4
			c-2.3-1.8-22.1,19.9-31.4,14.8c-4.3-2.4-3.7-9.2-10.6-12.3c-0.9-0.4-4.5-2.1-8.5-1c-6.4,1.7-6.8,8.8-10.4,9.4
			C342.8,53.1,335.7,24.7,329.5,25.3L329.5,25.3z"/>
		<path class="st7" d="M397.7,82.4c-5.9-4.2-28.9,7.8-34.4,27.9c-2.9,10.6-1.8,26.3,6.7,31.3c10.6,6.2,32.5-4.7,51.8-30.6
			c-15.1,2-18.6,2.1-18.6,1.7c-0.1-0.6,9-1.1,12.4-7.2c2-3.6,1.6-8.6,0-9.3c-2-0.9-5.4,4.4-6.7,3.6c-1-0.6,0.6-3.9,1-9.6
			c0.2-2.9,0.4-7.9-1.7-8.8c-1.6-0.7-4.3,1.1-5.7,3.1c-2.6,3.7-1.6,8.6-1.9,8.6C400.1,93.2,401.1,84.8,397.7,82.4L397.7,82.4z"/>
		<path class="st12" d="M404.1,103.2c-2.5,5-5.9,10.8-10.5,17c-5.6,7.3-11.4,12.9-16.2,17"/>
		<path class="st13" d="M103.5,192.8c2-0.9-7.9-10.3-8.1-26.4c-0.2-14.9,8-25.2,1.2-30.8c-0.5-0.4-2.8-2.4-5.4-2
			c-7.1,1-12.1,18.9-7.8,33.8C87.7,182.7,101.3,193.8,103.5,192.8z"/>
		<path class="st14" d="M57.6,121.5c0,0.1,0.1,0.1,0.1,0.2c1,0.9,4.5,9.6,13.7,19.9c1.6,1.7,11.2,12.5,14.1,11.5
			c0.9-0.3,0.6-1.6,1-8.4c0.2-3.5,0.5-3.8,0.3-5c-0.2-1.6-1-3.7-5.1-7.8c-4.9-4.8-10.2-10.1-17.4-10.6
			C62.7,121.1,57.8,121,57.6,121.5L57.6,121.5z"/>
		<path class="st15" d="M77.1,100.3c0.8,1.8,2.2,4.2,4.3,4.4c6.7,0.7,13.5-22,18-21.1c2.8,0.6,2,9.4,4.9,9.9c3,0.5,4.8-8.2,9.2-8.8
			c8.2-1,22.3,27,15.9,32.1c-5.1,4.1-20.3-8.8-26.6-3.8c-3.4,2.7-0.2,7.6-2.7,18.6c-0.3,1.4-3.4,15.5-7.5,15.5
			c-3.7,0-8.7-11.2-6.7-21.5c1.3-6.9,5.9-14.3,8.1-13.8c4.2,1,2.6,31-4.9,32.5c-5.3,1-12.1-12.4-13.5-15.1
			c-5.9-11.6-8.3-26.9-3.3-29.3c1.1-0.5,2.2-0.3,2.9-0.2"/>
		<path class="st16" d="M167,77.2c-14,2.9-22.5,14.1-22.5,14.1c-2.8,3.7-8,12-5.4,13.6c2.9,1.8,14.3-5.4,21.4-11.6
			c0,0,6.7-4.7,10.5-12.2c0.6-1.2,1.4-2.9,0.4-3.8S168,77,167,77.2L167,77.2z"/>
		<path class="st17" d="M157.3,85.1c-1.3,3.2,8.3,9.5,16.3,14.8c7.6,5,21.1,13.9,24,11.1c2.8-2.8-4.1-17.6-16.6-24.1
			C171.3,81.8,158.6,81.9,157.3,85.1L157.3,85.1z"/>
		<path class="st18" d="M187,79.4c-4.1,5.1,6.4,28.6,22.2,32.3c0.7,0.2,9.7,2.2,12.1-2.1c3-5.3-5.6-18.7-16.1-25.5
			C200.3,81,189.9,75.8,187,79.4L187,79.4z"/>
		<path class="st18" d="M232.5,76.2c-7.3,0.7-13.9,23.9-8.8,28.2c2.8,2.4,9.6-0.9,13.1-5.6c4.1-5.3,5.2-13.9,1.3-19.1
			C237.6,79,235.3,75.9,232.5,76.2z"/>
		<path class="st19" d="M301.5,80.5c2.2,1.9,4.8,3.3,7.4,2.1c0,0,0,0,0.1,0c3.2-1.6,3.9-7.5,5.1-10.2c3-6.9,15.6-9,18-5.2
			c2.1,3.5-3.9,11.9-4.4,12.6c-3.3,4.5-9.7,10.3-14.5,8.2c-2.7-1.2-4-4.6-3.9-4.7c0.1-0.1,4.2,7,11.1,13.8
			c7.7,7.5,19.4,15,21.8,12.1c1.8-2.2-1.5-10.8-6.9-15.6c-6.5-5.8-14.4-4.5-14.4-5.3c0-0.8,8.6-2.5,18,0.6c7.5,2.5,9.8,3.5,10.8,5.7
			c1.2,2.7,0.8,5.6,0.4,7.4c0,0.1,0,0.3,0,0.5c-0.8,10.4-2,12.8-1.7,15.7c0.5,5.2,5.4,10.6,9.6,10.9c9.8,0.7,20.5-25.9,15.6-32.1
			c-3.2-4.1-14.3-0.7-21,3.3c-1,0.6-1.9,1.2-2.5,1.7"/>
		<g>
			<path class="st20" d="M377.4,146.7c10.5,0.7,16-1.9,19-4.4c4.7-3.9,4.1-8.2,10.8-17.6c3-4.2,7.2-10,9.3-9.3
				c2.5,0.8,2.8,11.2-2.9,18.4c-4.9,6.3-13.4,9-13.9,8.3c-0.7-0.9,10.2-10.1,24.1-15.1c8.3-3,17.6-4.6,18.3-3
				c1.1,2.4-18.9,12-17.9,13.7c0.9,1.7,20.5-7.3,23.6-3.2c1.3,1.6-0.2,5.1-2.4,7.3c-3.4,3.3-8.6,3.7-35.1,2.4
				c-4.6-0.2-8.5-0.4-8.6,0c-0.1,0.6,8.4,1.9,25,6.5c0.1,0,0,0,0.6,0.2c15.2,4.2,18.8,5.2,23.1,7.6c3.2,1.9,5.3,3.1,5.3,4.7
				c-0.1,3.1-7.6,6.3-13.7,5.6c-7.2-0.7-13.5-7-16.4-15.8"/>
			<path class="st20" d="M453.4,130.3c-2.9-0.1-7.5,9.4-5.5,18.4c1.7,7.7,8.2,14.8,10.8,13.9C463.7,161,458.6,130.6,453.4,130.3
				L453.4,130.3z"/>
			<path class="st20" d="M458.7,166.9c1.3-9.2,9.6-17.3,13.3-16.1c2.1,0.7,2.4,4.3,2.6,7.1c1.1,11.9-5.4,25.4-10.2,25
				C460.8,182.5,457.7,173.9,458.7,166.9L458.7,166.9z"/>
			<path class="st20" d="M463.6,182.6c-0.4,6.2-2.2,17-10,24.4c-2.5,2.4-3.8,2.6-4.6,2.4c-3.1-0.8-0.6-8.4-4.2-19.4
				c-2.2-6.7-5.5-10.8-3.3-13.1c1-1.1,2.8-1.4,4.2-1.2c6.5,0.9,11.2,14.4,9.5,25.4c-0.4,2.7-1.1,4.8-1.5,5.9"/>
		</g>
		<path class="st7" d="M262.5,35.6c-6-0.5-9-7.3-10.3-6.7c-1.1,0.5-0.8,6.3,2.1,10.7c7.9,12.1,34.2,14,39.9,4.8
			c4.4-7.2-3.5-21.7-8.1-21.5c-4.3,0.2-6.8,13.2-9.8,12.7c-1.9-0.4-1.9-5.8-3.8-6c-1.7-0.1-2.4,4-6.2,5.5
			C264.7,35.8,263.2,35.6,262.5,35.6L262.5,35.6z"/>
	</g>
</g>
</svg>
