<?xml version="1.0" encoding="UTF-8"?><svg id="Layer_2" xmlns="http://www.w3.org/2000/svg" viewBox="0 0 418.42 187.78"><defs><style>.cls-1{fill:none;}.cls-1,.cls-2,.cls-3,.cls-4,.cls-5,.cls-6,.cls-7,.cls-8,.cls-9,.cls-10,.cls-11,.cls-12,.cls-13,.cls-14,.cls-15{stroke:#231f20;stroke-miterlimit:10;}.cls-2{stroke-width:1.33px;}.cls-2,.cls-3,.cls-4,.cls-5,.cls-7,.cls-10,.cls-13,.cls-14{fill:#3b7265;}.cls-3{stroke-width:1.3px;}.cls-4{stroke-width:1.6px;}.cls-5{stroke-width:1.4px;}.cls-6{stroke-width:1.18px;}.cls-6,.cls-9,.cls-12,.cls-15{fill:#e02e29;}.cls-7{stroke-width:1.41px;}.cls-8{stroke-width:1.06px;}.cls-8,.cls-11{fill:#de1e35;}.cls-9{stroke-width:1.23px;}.cls-10{stroke-width:1.21px;}.cls-11{stroke-width:1.09px;}.cls-12{stroke-width:1.15px;}.cls-13{stroke-width:1.56px;}.cls-14{stroke-width:1.19px;}</style></defs><g id="Crown"><g><path class="cls-9" d="M57.75,30.67c-1.06-.31-2.52-.84-3.98-1.77-5.32-3.4-8.3-10.63-4.35-15.22,2.55-2.97,7.07-3.77,7.46-3.83,2.06-.34,3.68-.13,5.47,.1,5.03,.65,6.29,2.14,10.69,2.75,3.29,.45,5.02-.05,6.46,0,8.48,.27,20.76,19.83,18.27,40.86-1.35,11.45-8.07,31.72-21.51,33-10.01,.95-19.09-9.09-23.74-14.24-13.97-15.46-14.45-33.08-13.55-42.81,4.14,.71,31.65,5.75,37.29,21.21,.55,1.51,.93,3.21,.99,5.11"/><path class="cls-15" d="M63.35,20.2c-.84,3.28-1.55,7.8-.99,13.07,1.45,13.49,10.15,22.07,13.07,24.72"/><path class="cls-11" d="M95.55,15.33c-3.59,1.05-4.86,8-4.79,12.67,.28,18.16,21.47,41.48,47.47,41.46,17.72-.01,36.43-10.86,42.09-27.06,5.05-14.46-.85-32.48-7.18-33.59-3.26-.57-7.29,3.23-10.17,5.95-5.97,5.64-6.19,10.14-9.38,10.37-3.34,.23-4.03-4.65-10.77-7.87-2.07-.99-6.1-2.91-9.77-1.92-8.08,2.17-6.66,16.28-12.77,17.85-7.94,2.04-17.76-19.89-24.73-17.85Z"/><path class="cls-6" d="M180.49,13.36c1.81-.68,6.27,.04,15.12,1.5,9.45,1.57,14.17,2.35,16.38,3.26,7.21,2.96,15.29,9.75,16.07,19.04,.78,9.31-6.25,15.67-7.25,16.54-1,.88-10.32,8.78-22.37,7.27-13.12-1.65-18.89-13.13-21.11-17.54-5.79-11.51-4.94-27.02,3.15-30.07Z"/><path class="cls-12" d="M239.57,11.19c1.26-.49,5.78-2.24,10.55-1.18,13.22,2.93,22.67,26.2,8.63,39.54-6.23,5.92-18.84,11.54-26.53,8.52-13.91-5.47-12.03-39.36,7.35-46.88Z"/><path class="cls-8" d="M272.41,2.89c-5.88,.55-14.03,27.14-2.33,49.05,1.49,2.79,11.2,20.98,27.98,23.17,31.99,4.18,59.36-53.75,55.96-56.44-2.33-1.85-22.13,19.92-31.35,14.79-4.3-2.39-3.66-9.17-10.62-12.32-.85-.38-4.55-2.06-8.55-.99-6.44,1.73-6.76,8.77-10.36,9.37-7.42,1.22-14.49-27.21-20.73-26.62Z"/><path class="cls-15" d="M340.66,60.03c-5.91-4.17-28.87,7.83-34.39,27.94-2.9,10.57-1.79,26.35,6.69,31.28,10.61,6.18,32.51-4.74,51.82-30.57-15.08,2-18.56,2.06-18.63,1.67-.11-.63,9-1.1,12.42-7.16,2.05-3.64,1.65-8.59,0-9.31-1.96-.86-5.37,4.39-6.69,3.58-1.01-.62,.65-3.92,.96-9.55,.16-2.93,.43-7.9-1.67-8.84-1.63-.73-4.3,1.12-5.73,3.1-2.63,3.66-1.57,8.57-1.91,8.6-.44,.04,.49-8.38-2.87-10.75Z"/><path class="cls-1" d="M347.11,80.8c-2.47,5-5.86,10.85-10.51,16.96-5.6,7.35-11.38,12.91-16.24,16.96"/><path class="cls-14" d="M46.5,170.39c2.03-.92-7.88-10.31-8.13-26.36-.23-14.88,8-25.24,1.2-30.83-.52-.43-2.85-2.35-5.42-1.99-7.12,.99-12.05,18.87-7.83,33.82,4.32,15.3,17.92,26.39,20.18,25.36Z"/><path class="cls-10" d="M.61,99.1c-.02,.07,.06,.14,.08,.16,.99,.87,4.45,9.59,13.68,19.9,1.55,1.73,11.19,12.51,14.08,11.46,.89-.32,.61-1.59,.96-8.36,.18-3.54,.51-3.82,.32-5.01-.25-1.56-1.04-3.71-5.12-7.76-4.89-4.84-10.15-10.06-17.44-10.63-1.53-.12-6.44-.29-6.56,.24Z"/><path class="cls-2" d="M20.01,77.88c.8,1.75,2.21,4.18,4.29,4.39,6.66,.67,13.47-21.98,17.96-21.07,2.75,.56,1.97,9.44,4.93,9.95,2.96,.51,4.83-8.23,9.22-8.78,8.22-1.04,22.26,26.96,15.9,32.05-5.08,4.07-20.32-8.81-26.55-3.8-3.38,2.72-.19,7.57-2.7,18.58-.33,1.45-3.38,15.46-7.47,15.51-3.67,.04-8.65-11.16-6.68-21.51,1.32-6.95,5.92-14.28,8.11-13.75,4.15,1,2.55,31.05-4.93,32.48-5.26,1.01-12.14-12.4-13.51-15.07-5.93-11.56-8.27-26.93-3.34-29.27,1.05-.5,2.22-.3,2.86-.15"/><path class="cls-4" d="M109.93,54.82c-13.99,2.9-22.46,14.13-22.46,14.13-2.77,3.68-8.02,11.98-5.43,13.57,2.86,1.75,14.27-5.36,21.37-11.59,0,0,6.71-4.74,10.51-12.15,.61-1.19,1.35-2.92,.35-3.77-1-.85-3.28-.4-4.34-.19Z"/><path class="cls-3" d="M100.25,62.72c-1.29,3.2,8.3,9.53,16.28,14.81,7.58,5.01,21.12,13.94,23.99,11.1,2.83-2.79-4.05-17.57-16.59-24.14-9.7-5.09-22.36-5.04-23.68-1.77Z"/><path class="cls-5" d="M129.96,57.05c-4.06,5.12,6.36,28.58,22.23,32.27,.72,.17,9.68,2.15,12.05-2.05,3-5.31-5.58-18.68-16.07-25.52-4.9-3.19-15.35-8.32-18.22-4.69Z"/><path class="cls-5" d="M175.5,53.82c-7.32,.72-13.86,23.86-8.84,28.16,2.83,2.42,9.59-.94,13.13-5.57,4.06-5.31,5.17-13.94,1.34-19.07-.56-.75-2.84-3.8-5.63-3.52Z"/><path class="cls-13" d="M244.44,58.12c2.19,1.94,4.8,3.31,7.35,2.11,0,0,.04-.02,.07-.04,3.25-1.61,3.92-7.48,5.13-10.25,3-6.91,15.57-8.99,17.95-5.15,2.15,3.46-3.9,11.92-4.42,12.63-3.28,4.52-9.7,10.28-14.46,8.17-2.71-1.2-4.01-4.57-3.93-4.65,.13-.12,4.2,7.01,11.13,13.77,7.68,7.48,19.4,15.02,21.77,12.13,1.8-2.19-1.48-10.78-6.93-15.59-6.55-5.78-14.44-4.52-14.41-5.34,.04-.85,8.59-2.48,18.01,.63,7.47,2.47,9.78,3.5,10.8,5.72,1.21,2.65,.79,5.59,.37,7.36,0,.11-.02,.27-.03,.46-.8,10.41-1.98,12.77-1.7,15.69,.49,5.15,5.37,10.63,9.6,10.94,9.8,.72,20.52-25.95,15.61-32.12-3.22-4.05-14.29-.72-20.95,3.33-1.05,.64-1.9,1.24-2.52,1.71"/><g><path class="cls-7" d="M320.36,124.29c10.49,.7,15.95-1.86,19-4.44,4.66-3.93,4.12-8.2,10.83-17.56,2.98-4.15,7.16-9.99,9.28-9.29,2.53,.83,2.78,11.18-2.87,18.37-4.93,6.27-13.41,8.97-13.92,8.28-.66-.9,10.2-10.06,24.09-15.14,8.28-3.03,17.61-4.6,18.34-3.03,1.14,2.45-18.86,11.96-17.9,13.73,.94,1.74,20.47-7.28,23.64-3.23,1.26,1.6-.19,5.09-2.43,7.27-3.37,3.28-8.61,3.68-35.14,2.42-4.59-.22-8.55-.43-8.62,0-.1,.63,8.43,1.85,24.97,6.46,.07,.02,.05,.01,.61,.17,15.22,4.25,18.76,5.16,23.06,7.64,3.25,1.87,5.33,3.07,5.27,4.71-.1,3.06-7.62,6.28-13.7,5.65-7.23-.74-13.47-7.03-16.35-15.75"/><path class="cls-7" d="M396.38,107.94c-2.94-.13-7.51,9.39-5.52,18.37,1.7,7.67,8.16,14.84,10.83,13.93,4.93-1.68-.13-32.06-5.3-32.3Z"/><path class="cls-7" d="M401.69,144.48c1.29-9.19,9.64-17.3,13.26-16.15,2.08,.66,2.4,4.3,2.65,7.07,1.07,11.86-5.36,25.43-10.17,25.03-3.69-.31-6.73-8.9-5.75-15.95Z"/><path class="cls-7" d="M406.56,160.19c-.43,6.2-2.18,17.03-9.96,24.39-2.54,2.4-3.82,2.64-4.64,2.42-3.12-.82-.56-8.39-4.2-19.38-2.22-6.7-5.45-10.8-3.31-13.12,.98-1.06,2.77-1.41,4.2-1.21,6.55,.93,11.22,14.37,9.5,25.44-.42,2.68-1.13,4.77-1.55,5.85"/></g><path class="cls-15" d="M205.5,13.16c-5.95-.55-8.99-7.3-10.27-6.69-1.09,.52-.77,6.27,2.15,10.75,7.89,12.1,34.22,14,39.88,4.78,4.43-7.22-3.49-21.72-8.12-21.49-4.3,.22-6.83,13.22-9.79,12.66-1.88-.36-1.88-5.8-3.82-5.97-1.7-.15-2.35,3.96-6.21,5.49-1.66,.66-3.16,.54-3.82,.48Z"/></g></g></svg>