<?xml version="1.0" encoding="UTF-8"?><svg id="Layer_1" xmlns="http://www.w3.org/2000/svg" viewBox="0 0 354.96 284.4"><defs><style>.cls-1{fill:#414042;}</style></defs><path class="cls-1" d="M29.03,92.21c-.89,.3-.71,3.07-.6,4.78,.44,6.76,3.47,11.47,5.09,14.33,1.34,2.37,9.36,16.59,6.57,28.18-2,8.31-2.99,11.34-2.99,11.34-.74,2.28-1.28,3.66-1.43,5.85-.08,1.15-.5,7.1,2.19,8.84,3.29,2.12,11.23-2.04,15.4-8.24,4.98-7.41,3.44-16.05,5.73-16.24,1.48-.12,3.72,3.32,4.73,5.56,.15,.33,.26,.61,.36,.89,2.05,5.57,.38,10.64,2.43,12.66,1.65,1.62,5.63,1.2,8.19-.48,3.58-2.33,4.09-6.9,5.42-21.37,1.33-14.47,1.14-13.64,1.43-15.76,.2-1.5,3.51-25.14,7.76-25.19,3.2-.04,6.77,13.31,7.64,24.48,1.01,12.89-.49,36.87-3.94,46.69-.31,.89-1.27,3.63-.36,4.3,1.2,.88,5.23-2.17,7.37-4.49,7.17-7.76,3-18,7.07-38.61,2.09-10.54,3.96-11.8,5.13-12.18,4.86-1.54,12.92,7.17,17.31,15.52,8.16,15.52,1.59,25.87,10.27,34.39,5.81,5.7,13.77,5.99,16.48,6.09,12.86,.47,26.55-8.14,29.61-18.99,2.4-8.49-2.45-15.76,2.03-26.75,.72-1.76,2.15-5.19,4.06-5.13,1.38,.04,1.42,2.69,3.7,5.13,1.91,2.05,5.44,4.1,8.36,3.46,5.06-1.1,5.42-9.68,8.6-9.79,2.09-.08,4.08,3.55,6.45,10.03,6.32,17.27,3.71,22.95,8.36,26.75,6.35,5.2,18.83,.79,25.55-3.58,9.44-6.13,12.69-15.54,13.61-18.63,2.89,1.07,6.13,2.87,7.16,5.97,2.32,6.91-8.4,13.96-5.84,19.4,1.84,3.91,8.99,3.78,9.9,3.76,7.75-.14,15.39-6.3,15.04-11.22-.31-4.42-6.96-6.77-6.13-8.66,.51-1.17,3.61-1.59,5.9-.42,4.47,2.3,2.06,8.81,6.45,12.42,4.33,3.56,9.93-.09,12.91,3.22,2.59,2.88,.79,8.36-.18,11.46-8.49,27.14-5.74,39.17-12.01,40.48-4.73,.99-11.5-4.75-13.13-10.75-2.07-7.61,4.86-13.86,1.19-20.78-.11-.21-2.24-4.14-4.3-3.82-3.92,.61-7.78,16.65-1.91,28.66,3.24,6.63,11.33,16.11,18.87,14.81,11.94-2.07,15.56-30.03,21.33-74.57,2.94-22.7,2.82-33.54-1.51-35.28-2.38-.96-6.15,.79-7.64,3.34-2.42,4.14,3.04,8.51,2.87,16.48-.17,7.65-5.46,15.21-8.6,14.81-3.37-.43-5.51-10.25-5.73-17.19-.27-8.43,2.26-13.55-.24-15.28-1.71-1.19-5.18-.38-6.93,1.67-3.8,4.48,3.22,11.82-.24,18.15-2.22,4.07-7.97,6.24-12.42,5.49-2.21-.37-5.15-1.65-13.61-14.09-6.6-9.7-9.41-15.69-10.51-15.28-1.57,.58,5.05,12.57,1.67,24.84-3.14,11.41-14.84,22.7-22.69,20.78-13.77-3.38-7.07-51.63-20.06-54.21-2.6-.51-6.55,.66-8.46,3.16-3.5,4.59,1,12.12-2.28,14.51-1.78,1.3-4.6,.16-5.01,0-5.26-1.98-4.29-9.64-8.6-11.46-3.43-1.46-9.05,1.29-11.7,5.25-4.07,6.08,1.23,11.43,1.19,25.07,0,3.8-.05,19.99-9.07,24.6-2.51,1.28-6.92,2.28-9.07,.24-3.6-3.41,3.81-11.57,3.1-26.99-.1-2.22-.55-8.56-4.72-14.06-1.31-1.73-3.09-4.01-5.79-4.09-3.01-.1-6.16,2.57-6.21,5.01-.04,2.36,2.83,3,5.33,5.91,5.42,6.3,3.73,17.04,.64,23.46-.91,1.9-3.78,7.87-7.16,7.64-2.72-.18-4.5-4.27-6.91-10.87-8.79-24.05-6.72-28.88-12.28-32.95-5.04-3.7-9.11-1.45-18.07-7.77-1.49-1.05-3.89-2.76-6.19-5.31-8.5-9.42-4.36-17.74-12.36-32.06-2.54-4.54-6.04-9.23-11.46-11.1-.72-.25-5.74-1.93-7.16,0-1.06,1.43,.43,4.11,.54,4.3,1.62,2.84,4.32,2.93,6.99,4.65,4.33,2.8,5.6,8,6.44,11.47,.44,1.8,2.86,11.61-2.15,16.12-2.21,1.98-4.06,1.41-6.21,2.39-11.64,5.28-3.91,43.36-9.43,44.78-2.78,.71-5.62-8.69-10.87-8.48-6.15,.25-8.81,13.44-11.82,12.9-2.89-.52-.79-12.75-4.78-28.06-3.72-14.31-11.62-26.96-13.69-26.27Z"/><path class="cls-1" d="M138.6,92.09c-3.28,3.23-.32,13.32,5.25,14.81,2.11,.56,4.62-.11,6.21-1.67,2.82-2.77,2.48-8.05-.24-11.22-3.08-3.6-8.93-4.17-11.22-1.91Z"/></svg>